# xmcd
#
# Track frame offsets: 
#        150
#        15322
#        27487
#        42660
#        54287
#        65805
#        75617
#        87830
#        98625
#        111692
#        127477
#        141250
#        155415
#        170840
#        185240
#        199230
#
# Disc length: 2840 seconds
#
# Revision: 0
# Processed by: cddbd v1.5.2PL0 Copyright (c) Steve Scherf et al.
# Submitted via: ExactAudioCopy v1.3
#
DISCID=f10b1610
DTITLE=石原裕次郎 - 20世紀の戦士 石原裕次郎 BIG MAN the greatest collection Disc 2 00
DTITLE=CH-233-42
DYEAR=1900
DGENRE=JPop
TTITLE0=明日は明日の風が吹く
TTITLE1=陽のあたる坂道
TTITLE2=風速四十米
TTITLE3=素晴しき男性
TTITLE4=青い駒鳥の唄
TTITLE5=赤い波止場
TTITLE6=男なら夢を見ろ
TTITLE7=嵐の中を突ッ走れ
TTITLE8=紅の翼
TTITLE9=清水の暴れん坊
TTITLE10=千切れ飛ぶ愛情
TTITLE11=星の見えない街
TTITLE12=俺らにゃ俺らの夢がある
TTITLE13=世界を賭ける恋
TTITLE14=天と地を駈ける男
TTITLE15=男の友情背番号・3
EXTD=
EXTT0=
EXTT1=
EXTT2=
EXTT3=
EXTT4=
EXTT5=
EXTT6=
EXTT7=
EXTT8=
EXTT9=
EXTT10=
EXTT11=
EXTT12=
EXTT13=
EXTT14=
EXTT15=
PLAYORDER=
